# xmcd CD database file
#
# Track frame offsets:
#	150
#	14850
#	28261
#	39240
#	55948
#	74725
#	95128
#	104347
#	117286
#	122383
#
# Disc length: 1913 seconds
#
# Revision: 0
# Processed by: cddbd v1.5.2PL0 Copyright (c) Steve Scherf et al.
# Submitted via: CDex 1.70beta1
#
DISCID=8f07770a
DTITLE=Marc Cary and Chance - ABSTRAKT BLAK
DYEAR=2006
DGENRE=Jazz
TTITLE0=Abstrakt Blak
TTITLE1=Blaker Than Ever
TTITLE2=A Platform
TTITLE3=Pocket Lint
TTITLE4=This Is
TTITLE5=Across 125th
TTITLE6=Harlem At Last
TTITLE7=All I Ever Wanted
TTITLE8=Out of Time
TTITLE9=Dream Deferred 
EXTD=YEAR: 2006
EXTT0=
EXTT1=
EXTT2=
EXTT3=
EXTT4=
EXTT5=
EXTT6=
EXTT7=
EXTT8=
EXTT9=
PLAYORDER=
